<svg width="89" height="13" viewBox="0 0 89 13" fill="none" xmlns="http://www.w3.org/2000/svg">
<path d="M8.34091 4.03977C8.23106 3.69508 8.08333 3.38636 7.89773 3.11364C7.71591 2.83712 7.49811 2.60227 7.24432 2.40909C6.99053 2.21212 6.70076 2.0625 6.375 1.96023C6.05303 1.85795 5.69886 1.80682 5.3125 1.80682C4.6572 1.80682 4.06629 1.97538 3.53977 2.3125C3.01326 2.64962 2.59659 3.14394 2.28977 3.79545C1.98674 4.44318 1.83523 5.23674 1.83523 6.17614C1.83523 7.11932 1.98864 7.91667 2.29545 8.56818C2.60227 9.2197 3.02273 9.71402 3.55682 10.0511C4.09091 10.3883 4.69886 10.5568 5.38068 10.5568C6.01326 10.5568 6.56439 10.428 7.03409 10.1705C7.50758 9.91288 7.87311 9.54924 8.13068 9.07955C8.39205 8.60606 8.52273 8.04924 8.52273 7.40909L8.97727 7.49432H5.64773V6.04545H10.2216V7.36932C10.2216 8.34659 10.0133 9.19508 9.59659 9.91477C9.18371 10.6307 8.61174 11.1837 7.88068 11.5739C7.15341 11.964 6.32008 12.1591 5.38068 12.1591C4.32765 12.1591 3.40341 11.9167 2.60795 11.4318C1.81629 10.947 1.19886 10.2595 0.755682 9.36932C0.3125 8.47538 0.0909091 7.41477 0.0909091 6.1875C0.0909091 5.25947 0.219697 4.42614 0.477273 3.6875C0.734848 2.94886 1.09659 2.32197 1.5625 1.80682C2.0322 1.28788 2.58333 0.892045 3.21591 0.619318C3.85227 0.342803 4.54735 0.204545 5.30114 0.204545C5.92992 0.204545 6.51515 0.297348 7.05682 0.482954C7.60227 0.66856 8.08712 0.931818 8.51136 1.27273C8.93939 1.61364 9.29356 2.01894 9.57386 2.48864C9.85417 2.95455 10.0436 3.47159 10.142 4.03977H8.34091ZM16.0753 12.1761C15.2154 12.1761 14.4749 11.9924 13.8537 11.625C13.2363 11.2538 12.759 10.733 12.4219 10.0625C12.0885 9.38826 11.9219 8.59848 11.9219 7.69318C11.9219 6.79924 12.0885 6.01136 12.4219 5.32955C12.759 4.64773 13.2287 4.11553 13.831 3.73295C14.437 3.35038 15.1454 3.15909 15.956 3.15909C16.4484 3.15909 16.9257 3.24053 17.3878 3.40341C17.8499 3.56629 18.2647 3.82197 18.6321 4.17045C18.9995 4.51894 19.2893 4.97159 19.5014 5.52841C19.7135 6.08144 19.8196 6.75379 19.8196 7.54545V8.14773H12.8821V6.875H18.1548C18.1548 6.42803 18.0639 6.0322 17.8821 5.6875C17.7003 5.33902 17.4446 5.06439 17.1151 4.86364C16.7893 4.66288 16.4067 4.5625 15.9673 4.5625C15.4901 4.5625 15.0734 4.67992 14.7173 4.91477C14.3651 5.14583 14.0923 5.44886 13.8991 5.82386C13.7098 6.19508 13.6151 6.59848 13.6151 7.03409V8.02841C13.6151 8.61174 13.7173 9.10795 13.9219 9.51705C14.1302 9.92614 14.42 10.2386 14.7912 10.4545C15.1624 10.6667 15.5961 10.7727 16.0923 10.7727C16.4143 10.7727 16.7079 10.7273 16.973 10.6364C17.2382 10.5417 17.4673 10.4015 17.6605 10.2159C17.8537 10.0303 18.0014 9.80114 18.1037 9.52841L19.7116 9.81818C19.5829 10.2917 19.3518 10.7064 19.0185 11.0625C18.6889 11.4148 18.2741 11.6894 17.7741 11.8864C17.2779 12.0795 16.7116 12.1761 16.0753 12.1761ZM25.7784 3.27273V4.63636H21.0114V3.27273H25.7784ZM22.2898 1.18182H23.9886V9.4375C23.9886 9.76705 24.0379 10.0152 24.1364 10.1818C24.2348 10.3447 24.3617 10.4564 24.517 10.517C24.6761 10.5739 24.8485 10.6023 25.0341 10.6023C25.1705 10.6023 25.2898 10.5928 25.392 10.5739C25.4943 10.5549 25.5739 10.5398 25.6307 10.5284L25.9375 11.9318C25.839 11.9697 25.6989 12.0076 25.517 12.0455C25.3352 12.0871 25.108 12.1098 24.8352 12.1136C24.3883 12.1212 23.9716 12.0417 23.5852 11.875C23.1989 11.7083 22.8864 11.4508 22.6477 11.1023C22.4091 10.7538 22.2898 10.3163 22.2898 9.78977V1.18182ZM34.4318 12.1932C33.8788 12.1932 33.3788 12.0909 32.9318 11.8864C32.4848 11.678 32.1307 11.3769 31.8693 10.983C31.6117 10.589 31.483 10.1061 31.483 9.53409C31.483 9.04167 31.5777 8.63636 31.767 8.31818C31.9564 8 32.2121 7.74811 32.5341 7.5625C32.8561 7.37689 33.2159 7.23674 33.6136 7.14205C34.0114 7.04735 34.4167 6.97538 34.8295 6.92614C35.3523 6.86553 35.7765 6.81629 36.1023 6.77841C36.428 6.73674 36.6648 6.67045 36.8125 6.57955C36.9602 6.48864 37.0341 6.34091 37.0341 6.13636V6.09659C37.0341 5.60038 36.8939 5.21591 36.6136 4.94318C36.3371 4.67045 35.9242 4.53409 35.375 4.53409C34.803 4.53409 34.3523 4.66098 34.0227 4.91477C33.697 5.16477 33.4716 5.44318 33.3466 5.75L31.75 5.38636C31.9394 4.85606 32.2159 4.42803 32.5795 4.10227C32.947 3.77273 33.3693 3.53409 33.8466 3.38636C34.3239 3.23485 34.8258 3.15909 35.3523 3.15909C35.7008 3.15909 36.0701 3.20076 36.4602 3.28409C36.8542 3.36364 37.2216 3.51136 37.5625 3.72727C37.9072 3.94318 38.1894 4.25189 38.4091 4.65341C38.6288 5.05114 38.7386 5.56818 38.7386 6.20455V12H37.0795V10.8068H37.0114C36.9015 11.0265 36.7367 11.2424 36.517 11.4545C36.2973 11.6667 36.0152 11.8428 35.6705 11.983C35.3258 12.1231 34.9129 12.1932 34.4318 12.1932ZM34.8011 10.8295C35.2708 10.8295 35.6723 10.7367 36.0057 10.5511C36.3428 10.3655 36.5985 10.1231 36.7727 9.82386C36.9508 9.52083 37.0398 9.19697 37.0398 8.85227V7.72727C36.9792 7.78788 36.8617 7.8447 36.6875 7.89773C36.517 7.94697 36.322 7.99053 36.1023 8.02841C35.8826 8.0625 35.6686 8.0947 35.4602 8.125C35.2519 8.15152 35.0777 8.17424 34.9375 8.19318C34.608 8.23485 34.3068 8.30492 34.0341 8.40341C33.7652 8.50189 33.5492 8.64394 33.3864 8.82955C33.2273 9.01136 33.1477 9.25379 33.1477 9.55682C33.1477 9.97727 33.303 10.2955 33.6136 10.5114C33.9242 10.7235 34.3201 10.8295 34.8011 10.8295ZM49.1392 12H45.3722V0.363636H49.2585C50.3987 0.363636 51.3778 0.596591 52.196 1.0625C53.0142 1.52462 53.6411 2.18939 54.0767 3.05682C54.5161 3.92045 54.7358 4.95644 54.7358 6.16477C54.7358 7.37689 54.5142 8.41856 54.071 9.28977C53.6316 10.161 52.9953 10.8314 52.1619 11.3011C51.3286 11.767 50.321 12 49.1392 12ZM47.1278 10.4659H49.0426C49.929 10.4659 50.6657 10.2992 51.2528 9.96591C51.84 9.62879 52.2794 9.14205 52.571 8.50568C52.8627 7.86553 53.0085 7.08523 53.0085 6.16477C53.0085 5.25189 52.8627 4.47727 52.571 3.84091C52.2831 3.20455 51.8532 2.72159 51.2812 2.39205C50.7093 2.0625 49.9991 1.89773 49.1506 1.89773H47.1278V10.4659ZM60.544 12.1761C59.6842 12.1761 58.9437 11.9924 58.3224 11.625C57.705 11.2538 57.2277 10.733 56.8906 10.0625C56.5573 9.38826 56.3906 8.59848 56.3906 7.69318C56.3906 6.79924 56.5573 6.01136 56.8906 5.32955C57.2277 4.64773 57.6974 4.11553 58.2997 3.73295C58.9058 3.35038 59.6141 3.15909 60.4247 3.15909C60.9171 3.15909 61.3944 3.24053 61.8565 3.40341C62.3187 3.56629 62.7334 3.82197 63.1009 4.17045C63.4683 4.51894 63.758 4.97159 63.9702 5.52841C64.1823 6.08144 64.2884 6.75379 64.2884 7.54545V8.14773H57.3509V6.875H62.6236C62.6236 6.42803 62.5327 6.0322 62.3509 5.6875C62.169 5.33902 61.9134 5.06439 61.5838 4.86364C61.258 4.66288 60.8755 4.5625 60.4361 4.5625C59.9588 4.5625 59.5421 4.67992 59.1861 4.91477C58.8338 5.14583 58.5611 5.44886 58.3679 5.82386C58.1785 6.19508 58.0838 6.59848 58.0838 7.03409V8.02841C58.0838 8.61174 58.1861 9.10795 58.3906 9.51705C58.599 9.92614 58.8887 10.2386 59.2599 10.4545C59.6312 10.6667 60.0649 10.7727 60.5611 10.7727C60.883 10.7727 61.1766 10.7273 61.4418 10.6364C61.7069 10.5417 61.9361 10.4015 62.1293 10.2159C62.3224 10.0303 62.4702 9.80114 62.5724 9.52841L64.1804 9.81818C64.0516 10.2917 63.8205 10.7064 63.4872 11.0625C63.1577 11.4148 62.7429 11.6894 62.2429 11.8864C61.7467 12.0795 61.1804 12.1761 60.544 12.1761ZM66.1733 12V3.27273H67.804V4.69318H67.9119C68.0938 4.21212 68.3911 3.83712 68.804 3.56818C69.2169 3.29545 69.7112 3.15909 70.2869 3.15909C70.8703 3.15909 71.3589 3.29545 71.7528 3.56818C72.1506 3.84091 72.4441 4.21591 72.6335 4.69318H72.7244C72.9328 4.22727 73.2642 3.85606 73.7188 3.57955C74.1733 3.29924 74.715 3.15909 75.3438 3.15909C76.1354 3.15909 76.7812 3.4072 77.2812 3.90341C77.785 4.39962 78.0369 5.14773 78.0369 6.14773V12H76.3381V6.30682C76.3381 5.71591 76.1771 5.28788 75.8551 5.02273C75.5331 4.75758 75.1487 4.625 74.7017 4.625C74.1487 4.625 73.7188 4.79545 73.4119 5.13636C73.1051 5.47348 72.9517 5.9072 72.9517 6.4375V12H71.2585V6.19886C71.2585 5.72538 71.1108 5.3447 70.8153 5.05682C70.5199 4.76894 70.1354 4.625 69.6619 4.625C69.34 4.625 69.0426 4.71023 68.7699 4.88068C68.5009 5.04735 68.2831 5.2803 68.1165 5.57955C67.9536 5.87879 67.8722 6.22538 67.8722 6.61932V12H66.1733ZM83.9901 12.1761C83.1719 12.1761 82.4579 11.9886 81.848 11.6136C81.2382 11.2386 80.7647 10.714 80.4276 10.0398C80.0904 9.36553 79.9219 8.57765 79.9219 7.67614C79.9219 6.77083 80.0904 5.97917 80.4276 5.30114C80.7647 4.62311 81.2382 4.09659 81.848 3.72159C82.4579 3.34659 83.1719 3.15909 83.9901 3.15909C84.8082 3.15909 85.5223 3.34659 86.1321 3.72159C86.742 4.09659 87.2154 4.62311 87.5526 5.30114C87.8897 5.97917 88.0582 6.77083 88.0582 7.67614C88.0582 8.57765 87.8897 9.36553 87.5526 10.0398C87.2154 10.714 86.742 11.2386 86.1321 11.6136C85.5223 11.9886 84.8082 12.1761 83.9901 12.1761ZM83.9957 10.75C84.526 10.75 84.9654 10.6098 85.3139 10.3295C85.6624 10.0492 85.92 9.67614 86.0866 9.21023C86.2571 8.74432 86.3423 8.23106 86.3423 7.67045C86.3423 7.11364 86.2571 6.60227 86.0866 6.13636C85.92 5.66667 85.6624 5.28977 85.3139 5.00568C84.9654 4.72159 84.526 4.57955 83.9957 4.57955C83.4616 4.57955 83.0185 4.72159 82.6662 5.00568C82.3177 5.28977 82.0582 5.66667 81.8878 6.13636C81.7211 6.60227 81.6378 7.11364 81.6378 7.67045C81.6378 8.23106 81.7211 8.74432 81.8878 9.21023C82.0582 9.67614 82.3177 10.0492 82.6662 10.3295C83.0185 10.6098 83.4616 10.75 83.9957 10.75Z" fill="white"/>
</svg>
